<svg xmlns="http://www.w3.org/2000/svg" width="184.999" height="196" viewBox="0 0 184.999 196">
  <g id="study" transform="translate(0 -20.202)">
    <g id="Grupo_2" data-name="Grupo 2" transform="translate(0 20.202)">
      <path id="Caminho_2" data-name="Caminho 2" d="M283.535,69.63h54.75a2.71,2.71,0,0,0,2.71-2.71V55.24a2.71,2.71,0,0,0-2.71-2.71h-54.75a2.71,2.71,0,0,0-2.71,2.71V66.92A2.71,2.71,0,0,0,283.535,69.63Zm2.71-11.68h49.33v6.26h-49.33Z" transform="translate(-179.356 -40.849)" fill="#e3e3e3"/>
      <path id="Caminho_3" data-name="Caminho 3" d="M194.438,197.992a34.409,34.409,0,0,0-15.684,3.728,2.71,2.71,0,1,0,2.448,4.836,29.032,29.032,0,0,1,13.236-3.144,29.414,29.414,0,1,1-22.306,10.247,2.71,2.71,0,0,0-4.109-3.534,34.826,34.826,0,1,0,26.415-12.133Z" transform="translate(-101.939 -133.752)" fill="#e3e3e3"/>
      <path id="Caminho_4" data-name="Caminho 4" d="M362.285,152.215a2.71,2.71,0,0,0-2.71-2.71H316.87a2.71,2.71,0,0,0,0,5.42h42.705A2.71,2.71,0,0,0,362.285,152.215Z" transform="translate(-200.646 -102.785)" fill="#e3e3e3"/>
      <path id="Caminho_5" data-name="Caminho 5" d="M283.535,122.6h54.75a2.71,2.71,0,0,0,0-5.42h-54.75a2.71,2.71,0,0,0,0,5.42Z" transform="translate(-179.356 -82.139)" fill="#e3e3e3"/>
      <path id="Caminho_6" data-name="Caminho 6" d="M391.963,184.541a2.71,2.71,0,0,0-2.71-2.71H363.338a2.71,2.71,0,1,0,0,5.42h25.915A2.71,2.71,0,0,0,391.963,184.541Z" transform="translate(-230.324 -123.43)" fill="#e3e3e3"/>
      <path id="Caminho_7" data-name="Caminho 7" d="M407.447,216.866a2.71,2.71,0,0,0-2.71-2.71H387.582a2.71,2.71,0,1,0,0,5.42h17.155A2.71,2.71,0,0,0,407.447,216.866Z" transform="translate(-245.808 -144.076)" fill="#e3e3e3"/>
      <path id="Caminho_8" data-name="Caminho 8" d="M412.2,246.481h-13.5a2.71,2.71,0,0,0,0,5.42h13.5a2.71,2.71,0,0,0,0-5.42Z" transform="translate(-252.904 -164.721)" fill="#e3e3e3"/>
      <path id="Caminho_9" data-name="Caminho 9" d="M415.7,278.806h-10.95a2.71,2.71,0,0,0,0,5.42H415.7a2.71,2.71,0,0,0,0-5.42Z" transform="translate(-256.776 -185.366)" fill="#e3e3e3"/>
      <path id="Caminho_10" data-name="Caminho 10" d="M67.36,69.63h54.749a2.71,2.71,0,0,0,2.71-2.71V55.24a2.71,2.71,0,0,0-2.71-2.71H67.36a2.71,2.71,0,0,0-2.71,2.71V66.92a2.71,2.71,0,0,0,2.71,2.71Zm2.71-11.68H119.4v6.26H70.07Z" transform="translate(-41.29 -40.849)" fill="#e3e3e3"/>
      <path id="Caminho_11" data-name="Caminho 11" d="M67.36,154.925h42.705a2.71,2.71,0,0,0,0-5.42H67.36a2.71,2.71,0,1,0,0,5.42Z" transform="translate(-41.29 -102.785)" fill="#e3e3e3"/>
      <path id="Caminho_12" data-name="Caminho 12" d="M67.36,122.6h54.749a2.71,2.71,0,0,0,0-5.42H67.36a2.71,2.71,0,1,0,0,5.42Z" transform="translate(-41.29 -82.139)" fill="#e3e3e3"/>
      <path id="Caminho_13" data-name="Caminho 13" d="M67.36,187.251H93.275a2.71,2.71,0,1,0,0-5.42H67.36a2.71,2.71,0,1,0,0,5.42Z" transform="translate(-41.29 -123.43)" fill="#e3e3e3"/>
      <path id="Caminho_14" data-name="Caminho 14" d="M67.36,219.576H84.515a2.71,2.71,0,0,0,0-5.42H67.36a2.71,2.71,0,1,0,0,5.42Z" transform="translate(-41.29 -144.076)" fill="#e3e3e3"/>
      <path id="Caminho_15" data-name="Caminho 15" d="M66.351,251.9h13.5a2.71,2.71,0,0,0,0-5.42h-13.5a2.71,2.71,0,1,0,0,5.42Z" transform="translate(-40.646 -164.721)" fill="#e3e3e3"/>
      <path id="Caminho_16" data-name="Caminho 16" d="M78.31,278.806H67.36a2.71,2.71,0,0,0,0,5.42H78.31a2.71,2.71,0,0,0,0-5.42Z" transform="translate(-41.29 -185.366)" fill="#e3e3e3"/>
      <g id="Grupo_3" data-name="Grupo 3">
        <path id="Caminho_1" data-name="Caminho 1" d="M182.289,52.8a2.71,2.71,0,0,0,2.71-2.71V39.7a8.559,8.559,0,0,0-8.549-8.549h-3.133V22.912a2.71,2.71,0,0,0-2.71-2.71h-67.16A13.646,13.646,0,0,0,92.5,25.7a13.645,13.645,0,0,0-10.948-5.5H14.392a2.71,2.71,0,0,0-2.71,2.71v8.242H8.549A8.558,8.558,0,0,0,0,39.7v106.58a8.559,8.559,0,0,0,8.549,8.549H62.558a46.467,46.467,0,0,0,16.282,8.9v11.018a2.71,2.71,0,0,0,2.71,2.71h1.67v35.366a2.87,2.87,0,0,0,2.91,2.689c1.337,0,2.275-1.05,2.509-2.689-.008.155,0-7.927,0-8.087V177.462h7.72v35.366a2.767,2.767,0,0,0,2.8,2.689,2.619,2.619,0,0,0,2.624-2.689V177.462h1.67a2.71,2.71,0,0,0,2.71-2.71V163.733a46.478,46.478,0,0,0,16.282-8.9H176.45A8.559,8.559,0,0,0,185,146.282V62.74a2.71,2.71,0,1,0-5.42,0v83.542a3.133,3.133,0,0,1-3.129,3.129H127.891a46.757,46.757,0,0,0,4.5-6.258h38.212a2.71,2.71,0,0,0,2.71-2.71V36.573h3.133a3.133,3.133,0,0,1,3.129,3.129V50.094A2.71,2.71,0,0,0,182.289,52.8ZM103.447,25.622H167.9v101.16H138.4a46.512,46.512,0,0,0-43.19-53.939V33.863a8.249,8.249,0,0,1,8.238-8.241ZM92.5,160.362a41.09,41.09,0,0,1-.02-82.179h.039a41.09,41.09,0,0,1-.02,82.179ZM17.1,132.2H47.82a46.1,46.1,0,0,0,1.995,5.532H17.1ZM5.42,146.283V39.7a3.133,3.133,0,0,1,3.129-3.129h3.133v66.119a2.71,2.71,0,0,0,5.42,0V25.622h64.45a8.249,8.249,0,0,1,8.238,8.242v38.98A46.514,46.514,0,0,0,46.6,126.782H17.1V115.339a2.71,2.71,0,0,0-5.42,0v25.1a2.71,2.71,0,0,0,2.71,2.71H52.6a46.747,46.747,0,0,0,4.5,6.258H8.549a3.133,3.133,0,0,1-3.129-3.129Zm95.319,25.759H84.26V165.05a46.81,46.81,0,0,0,16.48,0v6.991Zm34.444-34.308a46.154,46.154,0,0,0,1.995-5.532H167.9v5.532Z" transform="translate(0 -20.202)" fill="#e3e3e3"/>
        <path id="Caminho_17" data-name="Caminho 17" d="M2.5,0h14a2.315,2.315,0,0,1,2.271,2.5c0,1.381.172,2-1.209,2H2.5C1.119,4.5.156,3.922.266,2.484S1.119,0,2.5,0Z" transform="translate(102 196) rotate(180)" fill="#e3e3e3"/>
      </g>
    </g>
  </g>
</svg>
